<?xml version="1.0" encoding="UTF-8" standalone="no" ?>
<!DOCTYPE svg PUBLIC "-//W3C//DTD SVG 1.1//EN" "http://www.w3.org/Graphics/SVG/1.1/DTD/svg11.dtd">
<svg xmlns="http://www.w3.org/2000/svg" xmlns:xlink="http://www.w3.org/1999/xlink" version="1.1" width="300" height="150" viewBox="0 0 300 150" xml:space="preserve">
<desc>Created with Fabric.js 3.6.3</desc>
    <defs>
</defs>
    <g transform="matrix(1 0 0 1 10.5 10.5)"  >
<circle style="stroke: none; stroke-width: 1; stroke-dasharray: none; stroke-linecap: butt; stroke-dashoffset: 0; stroke-linejoin: miter; stroke-miterlimit: 4; fill: rgb(132,94,194); fill-rule: nonzero; opacity: 1;"  cx="0" cy="0" r="10" />
</g>
    <g transform="matrix(1 0 0 1 50.5 10.5)"  >
<circle style="stroke: none; stroke-width: 1; stroke-dasharray: none; stroke-linecap: butt; stroke-dashoffset: 0; stroke-linejoin: miter; stroke-miterlimit: 4; fill: rgb(0,129,207); fill-rule: nonzero; opacity: 1;"  cx="0" cy="0" r="10" />
</g>
    <g transform="matrix(1 0 0 1 90.5 10.5)"  >
<circle style="stroke: none; stroke-width: 1; stroke-dasharray: none; stroke-linecap: butt; stroke-dashoffset: 0; stroke-linejoin: miter; stroke-miterlimit: 4; fill: rgb(0,143,122); fill-rule: nonzero; opacity: 1;"  cx="0" cy="0" r="10" />
</g>
    <g transform="matrix(1 0 0 1 10.5 50.5)"  >
<circle style="stroke: none; stroke-width: 1; stroke-dasharray: none; stroke-linecap: butt; stroke-dashoffset: 0; stroke-linejoin: miter; stroke-miterlimit: 4; fill: rgb(238,124,255); fill-rule: nonzero; opacity: 1;"  cx="0" cy="0" r="10" />
</g>
    <g transform="matrix(1 0 0 1 50.5 50.5)"  >
<circle style="stroke: none; stroke-width: 1; stroke-dasharray: none; stroke-linecap: butt; stroke-dashoffset: 0; stroke-linejoin: miter; stroke-miterlimit: 4; fill: rgb(249,248,113); fill-rule: nonzero; opacity: 1;"  cx="0" cy="0" r="10" />
</g>
    <g transform="matrix(1 0 0 1 90.5 50.5)"  >
<circle style="stroke: none; stroke-width: 1; stroke-dasharray: none; stroke-linecap: butt; stroke-dashoffset: 0; stroke-linejoin: miter; stroke-miterlimit: 4; fill: rgb(255,111,145); fill-rule: nonzero; opacity: 1;"  cx="0" cy="0" r="10" />
</g>
    <g transform="matrix(1 0 0 1 10.5 90.5)"  >
<circle style="stroke: none; stroke-width: 1; stroke-dasharray: none; stroke-linecap: butt; stroke-dashoffset: 0; stroke-linejoin: miter; stroke-miterlimit: 4; fill: rgb(255,128,102); fill-rule: nonzero; opacity: 1;"  cx="0" cy="0" r="10" />
</g>
    <g transform="matrix(1 0 0 1 50.5 90.5)"  >
<circle style="stroke: none; stroke-width: 1; stroke-dasharray: none; stroke-linecap: butt; stroke-dashoffset: 0; stroke-linejoin: miter; stroke-miterlimit: 4; fill: rgb(75,68,83); fill-rule: nonzero; opacity: 1;"  cx="0" cy="0" r="10" />
</g>
    <g transform="matrix(1 0 0 1 90.5 90.5)"  >
<circle style="stroke: none; stroke-width: 1; stroke-dasharray: none; stroke-linecap: butt; stroke-dashoffset: 0; stroke-linejoin: miter; stroke-miterlimit: 4; fill: rgb(0,201,167); fill-rule: nonzero; opacity: 1;"  cx="0" cy="0" r="10" />
</g>
</svg>
